<svg width="23" height="25" viewBox="0 0 23 25" fill="none" xmlns="http://www.w3.org/2000/svg">
<path id="Union" fill-rule="evenodd" clip-rule="evenodd" d="M9.66504 9.32224C9.37695 9.45737 9.0791 9.57529 8.76367 9.64121C8.32373 9.79709 7.8623 9.86997 7.40137 9.93576C6.7876 10.026 6.16748 10.0918 5.54688 10.0953L5.53369 10.0998C5.51611 10.1061 5.49756 10.1126 5.48096 10.1126C4.53467 10.1438 3.58789 10.1404 2.6416 10.0676L2.59668 10.0613L2.49268 10.0467C3.15723 9.60593 3.7876 9.18918 4.41455 8.77585L4.41992 8.76755H4.42725L4.49219 8.71555L4.50244 8.7081C4.61035 8.63022 4.71826 8.55234 4.8291 8.48325C4.92285 8.42441 4.94385 8.3862 4.8501 8.29953C4.06299 7.55075 3.55371 6.64597 3.4043 5.57126C3.1377 3.64035 3.78906 2.07346 5.33887 0.884372C5.35303 0.87839 5.36475 0.874728 5.37549 0.87131L5.39795 0.86362C5.38574 0.884128 5.37646 0.905856 5.36719 0.927707L5.36328 0.936374C5.33691 0.999728 5.31006 1.06296 5.22803 1.10288C5.18701 1.12326 5.17822 1.20749 5.16943 1.2894C5.1665 1.3187 5.16309 1.34763 5.15869 1.37326C5.15381 1.4094 5.1543 1.44565 5.15479 1.48191V1.49033L5.15527 1.52927V9.64804C5.15527 9.81296 5.15527 9.89353 5.19287 9.94821C5.229 10.0005 5.29883 10.029 5.43604 10.0849H5.44287C5.30566 10.029 5.23584 10.0005 5.19971 9.94821C5.16211 9.89353 5.16211 9.81296 5.16211 9.64804V1.52915L5.16113 1.48423C5.15918 1.44724 5.15771 1.41025 5.16553 1.37326C5.16992 1.34812 5.17334 1.31906 5.17627 1.28928C5.18506 1.20835 5.19434 1.12314 5.23486 1.10276C5.31689 1.06284 5.34375 0.999606 5.37012 0.936374L5.37305 0.92905C5.38281 0.906711 5.39258 0.884616 5.40479 0.86362C6.03564 0.395602 6.74609 0.139133 7.51904 0.0419647C7.84033 0.00107113 8.16455 -0.0230988 8.48584 0.0325653L8.49658 0.0315887C8.80518 0.0419647 9.11035 0.100925 9.40137 0.211887C9.35986 0.217258 9.32031 0.2103 9.28076 0.203464L9.25781 0.199557C9.30469 0.210544 9.35205 0.221652 9.40137 0.211887L9.41162 0.208347L9.41895 0.215305C9.52637 0.222263 9.62354 0.260348 9.71338 0.31235L9.72363 0.308932L9.73096 0.31589C9.84521 0.34714 9.95264 0.385226 10.0464 0.451022L10.1274 0.494479C10.3774 0.628268 10.6255 0.760837 10.8506 0.932956C11.5889 1.45639 12.1123 2.14975 12.4419 2.98178C13.2251 4.94736 12.6704 7.14511 11.0552 8.50412C11.0312 8.52793 11.002 8.5477 10.9722 8.56772L10.9165 8.60459C10.5859 8.8945 10.1909 9.07785 9.79736 9.26071L9.66504 9.32224ZM9.38428 1.33847C9.04785 1.20676 8.70459 1.12705 8.35107 1.07505C8.19727 1.02011 8.03711 1.03049 7.87891 1.0405L7.75488 1.04734C7.66504 1.051 7.59863 1.00803 7.53271 0.965671C7.47217 0.926486 7.41211 0.88779 7.33887 0.89133C7.41602 0.89133 7.47559 0.930026 7.53662 0.969333C7.60205 1.01145 7.66846 1.05442 7.7583 1.05075L7.8833 1.04392C8.04053 1.03391 8.19873 1.02378 8.35449 1.07859C8.2749 1.07859 8.19189 1.07859 8.11182 1.07505C7.4082 1.04734 6.75293 1.2103 6.13623 1.54648L6.13232 1.54868C5.96973 1.63755 5.88965 1.68149 5.87549 1.74106C5.86182 1.79953 5.91162 1.87278 6.01123 2.01828L6.01807 2.02841C6.0874 2.13242 6.13965 2.12888 6.23682 2.06308C6.39941 1.95212 6.57617 1.86545 6.76025 1.79612C7.35205 1.56687 7.95361 1.48618 8.57959 1.62741L8.59717 1.62619C8.76025 1.63315 8.9126 1.68869 9.06494 1.74411C9.56787 1.92441 10.001 2.20859 10.3687 2.5969C10.3765 2.60483 10.3843 2.61508 10.3921 2.62571C10.4219 2.6655 10.4546 2.7092 10.5176 2.6489C10.5483 2.61948 10.582 2.5936 10.6162 2.56784L10.6216 2.56369C10.6982 2.50608 10.7744 2.44858 10.8125 2.35422C10.8159 2.34726 10.7949 2.32651 10.7812 2.31613C10.5732 2.06992 10.3164 1.86887 10.0566 1.68515C9.91748 1.58591 9.76025 1.51413 9.60303 1.44223L9.58496 1.43381C9.51758 1.40293 9.4502 1.37192 9.38428 1.33847ZM10.4829 1.48752C10.4502 1.41147 10.4517 1.33457 10.4531 1.25754C10.4546 1.18723 10.4561 1.11692 10.4312 1.04734C10.4619 1.11911 10.4604 1.19174 10.459 1.26425V1.26816C10.458 1.34165 10.457 1.41501 10.4829 1.48752ZM10.4312 1.04734C10.4067 0.978 10.4658 0.905124 10.5278 0.856662C10.5439 0.843723 10.564 0.8353 10.582 0.835666C10.5654 0.836398 10.5469 0.844577 10.5317 0.856662C10.4692 0.905246 10.4102 0.978 10.4312 1.04734ZM9.12402 0.69028C9.0376 0.742282 8.96484 0.769992 8.90234 0.665988C8.96484 0.766574 9.0376 0.738864 9.12402 0.69028ZM10.417 8.62888C10.4165 8.64353 10.4058 8.65781 10.395 8.67197C10.3735 8.70066 10.3525 8.7291 10.3857 8.7584C10.3472 8.72617 10.3706 8.69712 10.3926 8.66831C10.4028 8.655 10.4131 8.64194 10.417 8.62888ZM10.5981 2.66611C10.4761 2.7728 10.3423 2.88999 10.4277 3.103C10.334 2.88254 10.4746 2.76731 10.604 2.66111L10.5981 2.66611ZM10.4482 8.56992C10.3442 8.47788 10.374 8.37766 10.4038 8.27829L10.4019 8.28513C10.376 8.38083 10.3501 8.47763 10.4482 8.56992ZM10.4482 8.56992C10.4531 8.57163 10.4473 8.58127 10.4399 8.59287L10.4321 8.60276C10.4414 8.58689 10.4502 8.57212 10.4482 8.56992ZM10.4312 8.14011C10.4263 6.89987 10.4268 5.65781 10.4272 4.41526L10.4277 3.17234L10.4307 4.41269V4.94419C10.4302 6.00888 10.4297 7.07444 10.4312 8.14011ZM8.73877 9.61765C8.71826 9.60605 8.69482 9.60825 8.67334 9.62033C8.53076 9.69065 8.37695 9.71775 8.22217 9.74497C8.13281 9.76071 8.04346 9.77646 7.95605 9.80063C7.9043 9.81504 7.85303 9.82932 7.82861 9.80307C7.85059 9.8386 7.90771 9.82309 7.96289 9.80759C8.0498 9.78318 8.13965 9.76743 8.22949 9.75156C8.38232 9.72446 8.53613 9.69724 8.68066 9.62729C8.69727 9.61069 8.71924 9.60703 8.73877 9.61765ZM15.2114 19.1051L13.2563 20.3739C11.96 21.2163 10.6562 22.0414 9.29053 22.7694C8.75342 23.0571 8.19873 23.3171 7.61963 23.5146C7.57812 23.5285 7.53271 23.5389 7.48779 23.5493C7.2627 23.6465 7.03027 23.7123 6.79102 23.7538C6.3125 23.8994 5.82031 23.948 5.32812 23.9757C4.49609 24.0241 3.66064 24.0103 2.84619 23.837C1.44531 23.5423 0.571777 22.6618 0.131348 21.3237C0.103027 21.2389 0.081543 21.1513 0.0576172 21.0533C0.043457 20.9951 0.0283203 20.9332 0.0102539 20.8661C0.329102 21.0844 0.620605 21.2613 0.942871 21.3791C1.76807 21.6738 2.60693 21.8575 3.48389 21.6738C4.19092 21.5248 4.75586 21.1227 5.25879 20.6234C5.58252 20.303 5.84375 19.93 6.10352 19.5588L6.10742 19.5536L6.12549 19.5279C6.18604 19.5315 6.2207 19.5184 6.23975 19.4959C6.21973 19.5154 6.18555 19.5267 6.12891 19.5246C6.15625 19.4397 6.20312 19.3709 6.26074 19.3061C6.271 19.2541 6.29541 19.2125 6.3335 19.1744C6.58643 18.6891 6.79785 18.1899 6.98535 17.6803L6.99023 17.6644C7.00586 17.6141 7.02148 17.5637 7.03369 17.5103L7.10645 17.2677L7.11719 17.2354L7.12109 17.2249L7.13086 17.1983L7.24512 16.6819C7.24707 16.6732 7.25049 16.6645 7.25391 16.6567L7.25879 16.6437L7.26758 16.644C7.27734 16.6447 7.28809 16.6455 7.29346 16.6402C7.28809 16.6422 7.28076 16.6413 7.27295 16.6408L7.2627 16.6404L7.38672 15.6858L7.38379 15.68L7.38281 15.6559C7.37939 15.5669 7.37598 15.4781 7.40479 15.3923C7.40723 15.4452 7.41113 15.4966 7.41553 15.5543L7.42188 15.6349C7.45215 15.6002 7.47803 15.5605 7.49756 15.52C7.47852 15.558 7.45361 15.5956 7.42529 15.628L7.41846 15.5259L7.41602 15.4887L7.41455 15.4686L7.4082 15.3853C7.41846 15.2501 7.35254 15.1981 7.21729 15.1913C6.97998 15.1775 6.74609 15.1329 6.51562 15.078L6.50684 15.0837C5.74414 14.945 5.01611 14.692 4.29834 14.4043L4.21826 14.3735C4.13379 14.3419 4.0498 14.3105 3.97607 14.2552C4 14.1295 4.08691 14.1502 4.17188 14.1707L4.17725 14.172C4.26953 14.1938 4.35303 14.1749 4.44385 14.1545C4.48242 14.1457 4.52295 14.1366 4.56543 14.1303L4.55908 14.1245C4.51904 14.1307 4.48047 14.1393 4.44385 14.1476C4.35303 14.1681 4.26904 14.187 4.17725 14.1651L4.17188 14.1639C4.08691 14.1434 4 14.1227 3.97607 14.2483C3.92725 14.2379 3.87891 14.2206 3.84082 14.1825V14.1893C3.63965 14.1269 3.45264 14.0299 3.27588 13.9155C3.29883 13.9155 3.32178 13.9061 3.34473 13.8967C3.3833 13.8808 3.4209 13.8653 3.45605 13.8982C3.5542 13.9878 3.66016 13.9688 3.7666 13.9498C3.8252 13.9394 3.88379 13.9289 3.94141 13.9363C4.00391 13.9437 4.05078 13.9226 4.08105 13.88C4.05029 13.9177 4.00391 13.9363 3.94482 13.9293C3.89014 13.9233 3.83398 13.9338 3.77783 13.9442C3.67041 13.9642 3.56201 13.9845 3.45947 13.8912C3.4248 13.8584 3.38721 13.8739 3.34814 13.8897C3.32568 13.899 3.30225 13.9085 3.2793 13.9085C2.36426 13.4856 1.58447 12.8894 0.960449 12.0956C0.530273 11.5478 0.201172 10.9446 0 10.2478C0.0717773 10.292 0.140137 10.3358 0.207031 10.3788L0.22998 10.3934L0.235352 10.3967C0.368164 10.4819 0.495117 10.5633 0.627441 10.6361C1.41797 11.0694 2.27051 11.2809 3.16162 11.3779C3.19531 11.3805 3.22949 11.389 3.26318 11.3974L3.29688 11.4056L3.2998 11.4129C3.42432 11.4205 3.54932 11.4309 3.67334 11.4413L3.68408 11.4421L3.69385 11.443C3.96143 11.4653 4.229 11.4876 4.49951 11.4853C4.53809 11.5265 4.58447 11.5238 4.63086 11.5211C4.64697 11.5201 4.66357 11.5191 4.67969 11.52C4.7207 11.5227 4.76221 11.5233 4.80371 11.5238L4.81006 11.5239C4.87549 11.5248 4.94141 11.5256 5.00586 11.5339C5.21924 11.5625 5.43066 11.5384 5.6416 11.5143L5.64795 11.5135C5.71582 11.5058 5.78369 11.4983 5.85156 11.4923H5.92432C6.32324 11.4891 6.72461 11.457 7.12354 11.4251L7.23828 11.416C7.17285 11.5938 7.03369 11.5715 6.90967 11.5516C6.88184 11.5471 6.85449 11.5428 6.8291 11.5409L6.79199 11.5379C6.62842 11.5248 6.47021 11.5121 6.30566 11.5477C6.48096 11.5168 6.64941 11.5301 6.82422 11.5439L6.8291 11.5443C6.85205 11.5466 6.87695 11.5508 6.90234 11.555C7.0293 11.5764 7.1748 11.6009 7.23828 11.416C7.28662 11.4022 7.33203 11.3952 7.38037 11.3883C7.47754 11.4715 7.58154 11.4819 7.71289 11.461C7.83643 11.4424 7.96582 11.4588 8.09521 11.4753L8.20557 11.4854L8.20898 11.4889C8.21826 11.4896 8.22656 11.4913 8.23535 11.4947C8.22559 11.4902 8.21533 11.487 8.20557 11.4854L8.09961 11.4731C7.96875 11.4572 7.83789 11.4413 7.70996 11.4577C7.57812 11.4785 7.47412 11.4681 7.37695 11.3849C8.58691 11.2081 9.73438 10.8441 10.7744 10.1889C12.3032 9.22861 13.3394 7.87314 13.9531 6.18833C14.5044 4.67343 14.6499 3.10312 14.5078 1.50144C14.4985 1.39402 14.4829 1.28818 14.4653 1.16904L14.4644 1.16245L14.4385 0.984958C14.8301 1.32126 15.1699 1.65403 15.4648 2.02841C16.1162 2.86386 16.4805 3.82419 16.626 4.86069C17.1284 8.41745 16.4004 11.7246 14.584 14.8065C14.5576 14.8507 14.5264 14.8922 14.4951 14.9336C14.4287 15.0219 14.3628 15.1102 14.3413 15.2259C14.9341 14.9278 15.5615 14.7198 16.1997 14.5431C17.0142 14.3177 17.8428 14.1755 18.6919 14.2171C19.5967 14.2622 20.4321 14.4979 21.105 15.1462C21.6558 15.68 21.9092 16.3596 22.0024 17.1048C22.1484 18.2835 21.8984 19.3963 21.4097 20.4675C21.4019 20.4856 21.3906 20.5036 21.374 20.5302L21.3545 20.5611C21.2642 20.0272 21.1431 19.535 20.9277 19.0636C20.751 18.6753 20.5259 18.3216 20.1929 18.0512C19.6904 17.6422 19.1011 17.5868 18.4873 17.6665C17.7871 17.7566 17.1528 18.0443 16.5254 18.3563C16.0781 18.5852 15.6411 18.8382 15.2114 19.1051ZM15.9868 15.0904C15.9819 15.0818 15.9795 15.0704 15.981 15.0561C15.9844 15.0215 16.0122 15.0145 16.0435 15.0145C16.062 15.0145 16.0791 15.0182 16.0889 15.0291C16.0791 15.0207 16.0635 15.0179 16.0474 15.0179C16.0161 15.0179 15.9883 15.0249 15.9849 15.0595C15.9824 15.0719 15.9829 15.0825 15.9868 15.0904ZM15.8931 18.3667C15.9097 18.383 15.918 18.4073 15.9219 18.4326C15.9292 18.4673 15.8979 18.4776 15.8701 18.4776C15.9014 18.4776 15.9326 18.4673 15.9258 18.4326C15.9199 18.4072 15.9106 18.383 15.8931 18.3667ZM5.64795 11.5067L5.6416 11.5074C5.43066 11.5316 5.21924 11.5556 5.00586 11.5271C4.94092 11.5188 4.87549 11.5179 4.81006 11.5171L4.80371 11.5169C4.76221 11.5165 4.7207 11.5158 4.67969 11.5132C4.66455 11.5123 4.64893 11.5132 4.63281 11.5141C4.58643 11.5169 4.53809 11.5197 4.49951 11.4785L5.16357 11.4819L5.85156 11.4854C5.78369 11.4914 5.71582 11.499 5.64795 11.5067ZM10.7109 0.998996C10.7446 0.998264 10.7837 0.974216 10.8232 0.94968L10.8296 0.948337C10.7881 0.974704 10.7471 1.00119 10.7109 0.998996ZM7.83447 23.161L7.8667 23.1693C7.88818 23.1756 7.91016 23.1822 7.92676 23.1932C7.91113 23.1837 7.8916 23.1783 7.87158 23.1727C7.8584 23.1692 7.8457 23.1655 7.83447 23.161ZM7.83447 23.161C7.81299 23.1523 7.79053 23.1433 7.78076 23.127C7.79102 23.1401 7.80908 23.148 7.82617 23.1555L7.83105 23.1576L7.83447 23.161ZM8.16895 22.9172C8.20654 22.9137 8.24365 22.9103 8.26221 22.9304C8.24268 22.9144 8.20752 22.9173 8.17236 22.9206C8.1499 22.9228 8.12695 22.9249 8.1084 22.9218C8.09424 22.92 8.07959 22.921 8.06445 22.9218C8.0498 22.9227 8.03516 22.9236 8.02148 22.9218C7.96582 22.9166 7.9209 22.9066 7.90039 22.8811C7.92285 22.9034 7.96631 22.9135 8.01807 22.9184L8.04639 22.917C8.06592 22.9154 8.08643 22.9138 8.10498 22.9184C8.12354 22.9215 8.14648 22.9194 8.16895 22.9172ZM7.90039 11.683C7.93848 11.6969 7.97656 11.7108 8.01123 11.7281L8.01465 11.7314C7.97998 11.7141 7.94189 11.7003 7.90381 11.6864C7.87891 11.6789 7.85449 11.67 7.84619 11.6487C7.85645 11.6637 7.87646 11.6725 7.89502 11.6806L7.90039 11.683Z" transform="translate(0.490234 0.560303)" stroke="#2695ff"/>
<defs>
<linearGradient id="golos__grd" x2="1" gradientUnits="userSpaceOnUse" gradientTransform="translate(8.33398 28.6175) scale(22.5653 24.5676) rotate(-122.434)">
<stop stop-color="#843CF7"/>
<stop offset="1" stop-color="#38B8F2"/>
</linearGradient>
</defs>
</svg>
