<svg width="25" height="27" viewBox="0 0 25 27" fill="none" xmlns="http://www.w3.org/2000/svg">
<g id="steemit-seeklogo.com">
<g id="Group">
<path id="Vector" d="M3.44104 0.00431787C3.1896 -0.121174 3.89788e-06 2.51524 3.89788e-06 4.4549C-0.00439782 7.10604 3.72055 13.1122 4.3478 15.4354C4.88756 17.428 3.43224 19.8194 3.83225 19.928C4.19759 20.1626 7.67274 16.6434 7.80809 15.143C7.98251 12.7537 3.75026 5.78675 3.41298 3.98785C3.02178 1.88833 3.72275 0.0512408 3.44104 0.00431787Z" transform="translate(0.53418 3.62097)" stroke="#2695ff"/>
<path id="Vector_2" d="M4.38906 0.0054951C4.06884 -0.154224 3.05726e-06 3.2015 3.05726e-06 5.67578C-0.00439866 9.05331 4.7456 16.7062 5.54506 19.6634C6.23283 22.202 4.37806 25.2492 4.88536 25.3855C5.35414 25.6831 9.78336 21.2034 9.95778 19.2889C10.1812 16.2461 4.78192 7.37109 4.3522 5.07561C3.8537 2.40727 4.7456 0.0649126 4.38906 0.0054951Z" transform="translate(7.55176 0.890747)" stroke="#2695ff"/>
<path id="Vector_3" d="M3.44104 0.00431787C3.1918 -0.121174 2.98495e-06 2.51524 2.98495e-06 4.4549C-0.00384845 7.10604 3.72055 13.1122 4.34835 15.4354C4.88756 17.428 3.43279 19.8194 3.83224 19.928C4.19979 20.1626 7.67549 16.6434 7.80864 15.143C7.98251 12.7537 3.75081 5.78675 3.41298 3.98785C3.02233 1.88833 3.72275 0.0512408 3.44104 0.00431787Z" transform="translate(16.7202 3.62097)" stroke="#2695ff"/>
</g>
</g>
<defs>
<linearGradient id="paint0_linear" x2="1" gradientUnits="userSpaceOnUse" gradientTransform="translate(2.95394 23.7755) scale(7.99816 20.4108) rotate(-122.434)">
<stop stop-color="#843CF7"/>
<stop offset="1" stop-color="#38B8F2"/>
</linearGradient>
<linearGradient id="paint1_linear" x2="1" gradientUnits="userSpaceOnUse" gradientTransform="translate(3.76722 30.2866) scale(10.2002 26.0004) rotate(-122.434)">
<stop stop-color="#843CF7"/>
<stop offset="1" stop-color="#38B8F2"/>
</linearGradient>
<linearGradient id="paint2_linear" x2="1" gradientUnits="userSpaceOnUse" gradientTransform="translate(2.95414 23.7755) scale(7.99869 20.4108) rotate(-122.434)">
<stop stop-color="#843CF7"/>
<stop offset="1" stop-color="#38B8F2"/>
</linearGradient>
</defs>
</svg>
