<svg width="25" height="20" viewBox="0 0 25 20" fill="none" xmlns="http://www.w3.org/2000/svg">
    <path d="M24 2.30655C23.1167 2.69797 22.1689 2.96342 21.173 3.08193C22.1898 2.47302 22.9682 1.50722 23.3371 0.359922C22.3833 0.923805 21.3305 1.33326 20.2087 1.55522C19.3103 0.596903 18.0326 0 16.6153 0C13.8963 0 11.6917 2.20459 11.6917 4.92209C11.6917 5.3075 11.7352 5.68393 11.8192 6.04389C7.72801 5.8384 4.1002 3.87828 1.67216 0.899805C1.24773 1.62569 1.00628 2.47149 1.00628 3.37436C1.00628 5.08256 1.87612 6.58978 3.19589 7.47158C2.38902 7.4446 1.63016 7.22264 0.965805 6.8537V6.91519C0.965805 9.29974 2.66349 11.2899 4.91456 11.7428C4.50212 11.8538 4.06722 11.9153 3.6173 11.9153C3.29938 11.9153 2.99193 11.8838 2.69047 11.8238C3.31734 13.7809 5.13503 15.2041 7.28864 15.2432C5.60444 16.5629 3.48083 17.3473 1.17428 17.3473C0.776864 17.3473 0.385412 17.3233 0 17.2798C2.1791 18.6791 4.76612 19.4949 7.5466 19.4949C16.6034 19.4949 21.554 11.9933 21.554 5.4875L21.5375 4.85013C22.5048 4.1602 23.3416 3.29338 24 2.30655Z" transform="translate(0.53418 0.140869)" stroke="#2695ff" />
    <defs>
        <linearGradient id="twitter__grd" x2="1" gradientUnits="userSpaceOnUse" gradientTransform="translate(9.07353 23.2457) scale(24.5677 19.956) rotate(-122.434)">
            <stop stop-color="#843CF7"/>
            <stop offset="1" stop-color="#38B8F2"/>
        </linearGradient>
    </defs>
</svg>
